<svg
viewBox="0 0 160 32"
fill="none"
xmlns="http://www.w3.org/2000/svg">
	<path
	  d="M45.8521 23.4713L39.6081 4.34869H43.634L48.7881 20.9035L54.0577 4.34869H58.0195L51.7242 23.4713H45.8521Z"
	  fill="#041434"
	/>
	<path
	  d="M62.8788 23.6906C62.2762 23.6906 61.6992 23.6261 61.1094 23.4842C60.5325 23.3422 59.9555 23.1229 59.3914 22.8003C58.8272 22.4777 58.3657 22.0132 58.0067 21.3809C57.6477 20.7487 57.481 20.0132 57.481 19.1487C57.4682 17.639 57.9682 16.5164 59.0067 15.7809C60.0324 15.0455 61.4684 14.6713 63.3019 14.6713L67.5329 14.6455V13.8842C67.5329 13.1616 67.238 12.6197 66.661 12.2713C66.0841 11.9229 65.3276 11.7551 64.3789 11.7551C62.6095 11.7551 61.5454 12.3358 61.1992 13.51L57.8272 13.5358C57.84 12.1035 58.4811 10.9422 59.7247 10.0648C60.9684 9.1874 62.4941 8.74869 64.2891 8.74869C66.0969 8.74869 67.6483 9.1874 68.9304 10.0648C70.2125 10.9422 70.8536 12.0777 70.8536 13.4842V23.4842H67.5201V21.6777C67.1226 22.1939 66.52 22.6584 65.7123 23.0713C64.9045 23.4842 63.9686 23.6906 62.8788 23.6906ZM63.1737 20.7745C64.2635 20.7745 65.2507 20.4261 66.161 19.7164C67.0713 19.0197 67.5201 18.168 67.5201 17.1874H63.9301C62.9172 17.1874 62.1608 17.3809 61.6479 17.7551C61.1351 18.1422 60.9299 18.6326 60.994 19.2261C61.1094 20.2584 61.8402 20.7745 63.1737 20.7745Z"
	  fill="#041434"
	/>
	<path
	  d="M73.7384 23.4713V8.99385H77.2643V10.6068C78.3669 9.36805 79.79 8.74869 81.5209 8.74869C83.162 8.74869 84.5852 9.27772 85.7519 10.3358C86.9315 11.3939 87.5213 12.8003 87.5213 14.5422V23.4713H83.9954V15.4713C83.9954 14.439 83.6877 13.6003 83.0723 12.981C82.4569 12.3616 81.7004 12.0519 80.8157 12.0519C79.7644 12.0519 78.9054 12.4261 78.2515 13.1874C77.5848 13.9487 77.2643 14.8906 77.2643 16.0132V23.4713H73.7384Z"
	  fill="#041434"
	/>
	<path
	  d="M93.7139 6.8003C93.278 7.22611 92.7523 7.44547 92.1369 7.44547C91.5215 7.44547 90.9958 7.22611 90.5599 6.8003C90.124 6.3745 89.906 5.84547 89.906 5.22611C89.906 4.60676 90.124 4.07772 90.5599 3.63901C90.9958 3.2003 91.5215 2.98095 92.1369 2.98095C92.7523 2.98095 93.278 3.2003 93.7139 3.63901C94.1499 4.07772 94.3678 4.60676 94.3678 5.22611C94.3678 5.84547 94.1499 6.36159 93.7139 6.8003Z"
	  fill="#041434"
	/>
	<path
	  d="M93.8806 8.99385H90.3547V23.4713H93.8806V8.99385Z"
	  fill="#041434"
	/>
	<path
	  d="M100.394 4.34869H96.868V23.4713H100.394V4.34869Z"
	  fill="#041434"
	/>
	<path
	  d="M106.766 4.34869H103.24V23.4713H106.766V4.34869Z"
	  fill="#041434"
	/>
	<path
	  d="M114.433 23.6906C113.831 23.6906 113.254 23.6261 112.664 23.4842C112.087 23.3422 111.51 23.1229 110.946 22.8003C110.382 22.4777 109.92 22.0132 109.561 21.3809C109.202 20.7487 109.035 20.0132 109.035 19.1487C109.023 17.639 109.523 16.5164 110.561 15.7809C111.587 15.0455 113.023 14.6713 114.856 14.6713L119.087 14.6455V13.8842C119.087 13.1616 118.792 12.6197 118.215 12.2713C117.638 11.9229 116.882 11.7551 115.933 11.7551C114.164 11.7551 113.1 12.3358 112.754 13.51L109.382 13.5358C109.394 12.1035 110.035 10.9422 111.279 10.0648C112.523 9.1874 114.049 8.74869 115.843 8.74869C117.651 8.74869 119.203 9.1874 120.485 10.0648C121.767 10.9422 122.408 12.0777 122.408 13.4842V23.4842H119.074V21.6777C118.677 22.1939 118.074 22.6584 117.267 23.0713C116.459 23.4842 115.51 23.6906 114.433 23.6906ZM114.728 20.7745C115.818 20.7745 116.805 20.4261 117.715 19.7164C118.626 19.0197 119.074 18.168 119.074 17.1874H115.484C114.472 17.1874 113.715 17.3809 113.202 17.7551C112.689 18.1422 112.484 18.6326 112.548 19.2261C112.664 20.2584 113.382 20.7745 114.728 20.7745Z"
	  fill="#041434"
	/>
	<path
	  d="M125.421 23.4713V4.34869H129.088V12.2455H138.152V4.34869H141.819V23.4713H138.152V15.5487H129.088V23.4713H125.421Z"
	  fill="#041434"
	/>
	<path
	  d="M144.858 23.4713V4.34869H153.192C155.025 4.34869 156.577 4.98095 157.846 6.25837C159.128 7.53579 159.756 9.05837 159.756 10.8261C159.756 12.1035 159.385 13.2648 158.654 14.31C157.923 15.3551 156.961 16.0906 155.795 16.5035L160 23.4713H156.09L152.153 16.968H148.538V23.4713H144.858ZM148.551 13.7809H153.115C153.987 13.7809 154.718 13.4842 155.333 12.8906C155.936 12.2971 156.243 11.5616 156.243 10.6971C156.243 9.84546 155.948 9.12288 155.372 8.54224C154.795 7.96159 154.064 7.66482 153.205 7.66482H148.563V13.7809H148.551Z"
	  fill="#041434"
	/>
	<path
	  d="M29.8194 14.5161C29.729 14.3613 29.6387 14.2065 29.5355 14.0516C28.8774 14.8258 28.1677 15.5484 27.3806 16.1935C27.4194 16.2581 27.4452 16.3226 27.4839 16.3871C28.4387 18.1548 29.0065 20.1677 29.0452 22.3097H22.8387C23.1097 21.1742 23.2516 20 23.2516 18.7871C23.2516 18.7484 23.2516 18.6968 23.2516 18.6581C23.2516 18.2581 23.2387 17.8581 23.2129 17.471C23.2 17.3032 23.1871 17.1355 23.1613 16.9677C24.3484 16.3742 25.4452 15.6387 26.4387 14.7742C27.1871 14.129 27.8839 13.4065 28.5032 12.6323C29.729 11.0839 30.6839 9.31613 31.2774 7.38065C31.3935 6.98065 31.5097 6.58065 31.6 6.16774C31.729 5.57419 31.8323 4.98064 31.8968 4.36129C31.9484 3.89677 31.9742 3.43226 31.9871 2.95484C31.9871 2.86452 31.9871 2.76129 31.9871 2.67097C31.9871 1.76774 31.9097 0.877419 31.7677 0.0129032H23.2516C21.0323 0.0129032 19.0065 0.83871 17.4581 2.20645C17.1871 2.43871 16.9419 2.69677 16.7097 2.95484C16.4516 3.25161 16.2065 3.56129 15.9871 3.88387C15.7677 3.56129 15.5226 3.23871 15.2645 2.95484C15.0323 2.68387 14.7742 2.43871 14.5161 2.20645C12.9806 0.825806 10.9548 0 8.73548 0H0V2.65806C0 2.74839 0 2.85161 0 2.94194C0.0129032 3.41935 0.0387097 3.88387 0.0903226 4.34839C0.154839 4.96774 0.258065 5.56129 0.387097 6.15484C0.477419 6.56774 0.580645 6.96774 0.709677 7.36774C1.30323 9.30323 2.25806 11.071 3.48387 12.6194C3.12258 13.071 2.7871 13.5484 2.46452 14.0387C2.36129 14.1935 2.27097 14.3484 2.18064 14.5032C0.83871 16.8129 0.0516129 19.471 0 22.3097C0 22.4 0 22.4903 0 22.5935C0 23.4968 0.0774194 24.4 0.219355 25.2645H10.1548C10.9806 27.0839 12.1419 28.7226 13.5484 30.1032C13.8581 30.4129 14.1806 30.6968 14.529 30.9806C14.9677 31.3419 15.4194 31.6903 15.8968 32H16.1032C16.5806 31.6903 17.0323 31.3419 17.471 30.9806C17.8064 30.6968 18.129 30.4129 18.4516 30.1032C19.8581 28.7226 21.0194 27.0839 21.8452 25.2645H31.7806C31.9226 24.4 32 23.5097 32 22.5935C32 22.5032 32 22.4129 32 22.3097C31.9484 19.471 31.1613 16.8129 29.8194 14.5161ZM3.47097 6.33548C3.45806 6.28387 3.44516 6.23226 3.43226 6.19355C3.17419 5.25161 3.00645 4.27097 2.96774 3.26452C2.96774 3.16129 2.95484 3.05806 2.95484 2.96774H8.73548C11.2 2.96774 13.3161 4.51613 14.1419 6.68387C14.1419 6.69677 14.1548 6.70968 14.1548 6.70968C14.1419 6.70968 14.1161 6.70968 14.1032 6.70968C13.7032 6.76129 13.3032 6.8129 12.9032 6.89032C10.6968 7.31613 8.64516 8.20645 6.86452 9.44516C6.4 9.76774 5.96129 10.1161 5.53548 10.4774C4.61935 9.25161 3.90968 7.84516 3.47097 6.33548ZM2.95484 22.3097C2.99355 20.1677 3.56129 18.1548 4.51613 16.3871C4.55484 16.3226 4.58065 16.2581 4.61935 16.1935C4.90323 15.7032 5.2129 15.2258 5.54839 14.7742C6.54194 15.6387 7.63871 16.3742 8.82581 16.9677C8.8129 17.1355 8.7871 17.3032 8.77419 17.471C8.74839 17.8581 8.73548 18.2581 8.73548 18.6581C8.73548 18.6968 8.73548 18.7484 8.73548 18.7871C8.74839 20 8.89032 21.1742 9.16129 22.3097H2.95484ZM9.44516 13.9484C8.7871 13.5613 8.15484 13.1226 7.57419 12.6323C8.0129 12.2581 8.47742 11.9097 8.96774 11.6C9.5871 11.2 10.2452 10.8516 10.9419 10.5677C12.0516 10.1032 13.2258 9.78064 14.4645 9.63871C14.4903 9.63871 14.5161 9.63871 14.529 9.62581V15.6387C14.4129 15.6258 14.2839 15.6129 14.1677 15.5871C13.4839 15.4968 12.8129 15.3419 12.1677 15.1484C11.4839 14.9419 10.8129 14.671 10.1806 14.3484C9.92258 14.2194 9.67742 14.0903 9.44516 13.9484ZM20.2581 19.8323C20.1806 20.6839 20.0258 21.5226 19.7935 22.3226C19.4968 23.3677 19.0581 24.3484 18.5161 25.2645C18.2065 25.8065 17.8452 26.3097 17.4581 26.8C17.0065 27.3677 16.5161 27.8839 15.9871 28.3613C15.4581 27.8839 14.9677 27.3548 14.5161 26.8C14.129 26.3226 13.7806 25.8065 13.4581 25.2645C12.9161 24.3484 12.4903 23.3548 12.1806 22.3226C11.9484 21.5226 11.7935 20.6968 11.7161 19.8323C11.6774 19.4452 11.6645 19.0581 11.6645 18.671C11.6645 18.4774 11.6645 18.2839 11.6774 18.0903C12.5935 18.3484 13.5355 18.5161 14.5032 18.6065C14.9935 18.6452 15.4839 18.671 15.9742 18.671C16.4774 18.671 16.9677 18.6452 17.4452 18.6065C18.4129 18.5161 19.3677 18.3484 20.271 18.0903C20.2839 18.2839 20.2839 18.4774 20.2839 18.671C20.3097 19.0581 20.2968 19.4452 20.2581 19.8323ZM21.8194 14.3484C21.1871 14.671 20.5161 14.929 19.8323 15.1484C19.1871 15.3419 18.5161 15.4968 17.8323 15.5871C17.7161 15.6 17.5871 15.6129 17.471 15.6387V9.62581C17.4968 9.62581 17.5226 9.62581 17.5355 9.63871C18.7742 9.78064 19.9484 10.1032 21.0581 10.5677C21.7419 10.8516 22.4 11.2 23.0323 11.6C23.8194 10.9806 24.529 10.2581 25.1226 9.44516C23.3419 8.20645 21.3032 7.31613 19.0839 6.89032C18.6968 6.8129 18.2968 6.74839 17.8968 6.70968C17.8839 6.70968 17.8581 6.70968 17.8452 6.70968C17.8452 6.69677 17.8581 6.68387 17.8581 6.68387C18.6839 4.50323 20.8 2.96774 23.2645 2.96774H29.0452C29.0452 3.07097 29.0452 3.17419 29.0323 3.26452C28.9935 4.27097 28.8258 5.26452 28.5677 6.19355C28.5548 6.24516 28.5419 6.29677 28.529 6.33548C28.0903 7.84516 27.3806 9.25161 26.4516 10.4903C25.8581 11.2774 25.1871 12 24.4258 12.6323C23.8452 13.1226 23.2129 13.5742 22.5548 13.9484C22.3226 14.0903 22.0774 14.2194 21.8194 14.3484Z"
	  fill="#8054E8"
	/>
</svg>
